<?xml version="1.0" encoding="utf-8"?>
<!-- Generator: Adobe Illustrator 19.0.0, SVG Export Plug-In . SVG Version: 6.00 Build 0)  -->
<svg version="1.1" id="Calque_1" xmlns="http://www.w3.org/2000/svg" xmlns:xlink="http://www.w3.org/1999/xlink" x="0px" y="0px"
	 viewBox="-111 354.9 442 132" style="enable-background:new -111 354.9 442 132;" xml:space="preserve">
<style type="text/css">
	.st0{display:none;opacity:0.5;stroke:#000000;stroke-miterlimit:10;}
	.st1{fill:#FFFFFF;}
	.st2{fill:none;stroke:#FFFFFF;stroke-miterlimit:10;}
</style>
<rect x="-304" y="239.1" class="st0" width="1041" height="404"/>
<g>
	<path class="st1" d="M-75.3,408.1h13l20.6,54.3h-17.1l-1.8-4.9H-77l-1.8,4.9h-17.1L-75.3,408.1z M-65.1,445.5l-3.7-9.5l-3.7,9.5
		C-72.5,445.5-65.1,445.5-65.1,445.5z"/>
	<path class="st1" d="M14.3,428.7c0,3.7-0.7,6.9-2,9.6c-1.3,2.6-3.1,4.8-5.3,6.4c-2.3,1.6-4.9,2.8-7.9,3.6c-3,0.8-6.3,1.1-9.7,1.1
		v12.9h-17.3V408h17.3c3.5,0,6.7,0.4,9.7,1.1c3,0.8,5.6,2,7.9,3.6c2.2,1.6,4,3.8,5.3,6.4C13.6,421.8,14.3,425,14.3,428.7z
		 M-10.6,434.7h0.7c2.3,0,3.9-0.5,4.9-1.6s1.5-2.5,1.5-4.4s-0.5-3.4-1.5-4.4c-1-1.1-2.6-1.6-4.9-1.6h-0.7V434.7z"/>
	<path class="st1" d="M18.4,408.1h18.7c3.5,0,6.7,0.5,9.6,1.4c3,0.9,5.5,2.3,7.7,4.1s3.9,4,5.1,6.6c1.2,2.6,1.8,5.7,1.8,9.1
		c0,2.7-0.4,5-1.1,6.9c-0.8,1.9-1.6,3.5-2.5,4.7c-1.1,1.4-2.3,2.6-3.7,3.6l10.2,17.9H43.9l-8.1-13.8v13.8H18.5v-54.3H18.4z
		 M35.7,434.7h0.9c2.1,0,3.8-0.5,5.2-1.4c1.4-0.9,2.2-2.5,2.2-4.6c0-2.2-0.7-3.7-2.2-4.6c-1.4-0.9-3.2-1.4-5.2-1.4h-0.9V434.7z"/>
	<path class="st1" d="M65.8,408.1h18.4v54.3H65.8V408.1z"/>
	<path class="st1" d="M100.9,434.3l-14.4-26.2h19l4.9,8.9l4.9-8.9h19l-14.4,26.2l15.5,28.1h-19l-6-10.8l-5.9,10.8h-19L100.9,434.3z"
		/>
	<path class="st1" d="M154.8,462.3V408h15.1c5.1,0,9.6,0.6,13.6,1.7c4,1.1,7.3,2.8,10.1,5.1c2.7,2.3,4.8,5.1,6.3,8.5
		c1.4,3.4,2.2,7.3,2.2,11.8c0,4.4-0.7,8.4-2.2,11.8c-1.4,3.4-3.5,6.2-6.3,8.5c-2.7,2.3-6.1,4-10.1,5.2c-4,1.2-8.5,1.7-13.6,1.7
		L154.8,462.3L154.8,462.3z M172.1,446.9c4.1,0,7.2-1,9.4-2.9s3.3-4.9,3.3-8.8c0-4-1.1-6.9-3.3-8.8c-2.2-1.9-5.4-2.8-9.4-2.8V446.9z
		"/>
	<path class="st1" d="M210.1,421.6h-5.4l-6.7-13.5h8.4L210.1,421.6z"/>
	<path class="st1" d="M211.2,435.2c0-3.9,0.7-7.6,2.2-11.1s3.5-6.5,6.1-9.1s5.6-4.6,9.1-6.1s7.2-2.2,11.1-2.2s7.6,0.7,11.1,2.2
		s6.5,3.5,9.1,6.1s4.6,5.6,6.1,9.1s2.2,7.2,2.2,11.1s-0.7,7.6-2.2,11.1c-1.5,3.5-3.5,6.5-6.1,9.1s-5.6,4.6-9.1,6.1
		s-7.2,2.2-11.1,2.2s-7.6-0.7-11.1-2.2s-6.5-3.5-9.1-6.1s-4.6-5.6-6.1-9.1S211.2,439.1,211.2,435.2z M228.3,435.2
		c0,1.6,0.3,3.1,0.9,4.4c0.6,1.4,1.4,2.6,2.4,3.6s2.2,1.8,3.6,2.4c1.4,0.6,2.9,0.9,4.4,0.9c1.6,0,3.1-0.3,4.4-0.9
		c1.4-0.6,2.6-1.4,3.6-2.4s1.8-2.2,2.4-3.6c0.6-1.4,0.9-2.9,0.9-4.4c0-1.6-0.3-3.1-0.9-4.4c-0.6-1.4-1.4-2.6-2.4-3.6
		s-2.2-1.8-3.6-2.4c-1.4-0.6-2.9-0.9-4.4-0.9c-1.6,0-3.1,0.3-4.4,0.9c-1.4,0.6-2.6,1.4-3.6,2.4s-1.8,2.2-2.4,3.6
		C228.6,432.2,228.3,433.7,228.3,435.2z"/>
	<path class="st1" d="M272.6,408.1h18.7c3.5,0,6.7,0.5,9.6,1.4c3,0.9,5.5,2.3,7.7,4.1s3.9,4,5.1,6.6c1.2,2.6,1.8,5.7,1.8,9.1
		c0,2.7-0.4,5-1.1,6.9c-0.8,1.9-1.6,3.5-2.5,4.7c-1.1,1.4-2.3,2.6-3.7,3.6l10.2,17.9h-20.3l-8.1-13.8v13.8h-17.3v-54.3
		C272.7,408.1,272.6,408.1,272.6,408.1z M290,434.7h0.9c2.1,0,3.8-0.5,5.2-1.4c1.4-0.9,2.2-2.5,2.2-4.6c0-2.2-0.7-3.7-2.2-4.6
		c-1.4-0.9-3.2-1.4-5.2-1.4H290V434.7z"/>
</g>
<line class="st2" x1="14.3" y1="371.4" x2="207" y2="371.4"/>
<line class="st2" x1="-95.9" y1="470" x2="318.4" y2="470"/>
<g>
	<path class="st1" d="M36.6,395c0,2.5-1.1,4.5-3.2,6.1c-2.1,1.6-5,2.4-8.7,2.4c-2.1,0-3.9-0.2-5.5-0.6c-1.6-0.4-3-0.8-4.4-1.4v-6.1
		h0.7c1.4,1.1,2.9,1.9,4.6,2.5s3.3,0.9,4.8,0.9c0.4,0,0.9,0,1.6-0.1s1.2-0.2,1.6-0.3c0.5-0.2,0.9-0.5,1.2-0.8
		c0.3-0.3,0.5-0.8,0.5-1.4c0-0.6-0.2-1-0.7-1.4s-1.2-0.7-2.1-0.9c-1-0.2-2-0.4-3-0.6c-1.1-0.2-2.1-0.5-3-0.8
		c-2.1-0.7-3.7-1.6-4.6-2.8c-0.9-1.2-1.4-2.7-1.4-4.4c0-2.4,1.1-4.3,3.2-5.8c2.1-1.5,4.9-2.2,8.2-2.2c1.7,0,3.3,0.2,5,0.5
		c1.6,0.3,3.1,0.7,4.2,1.2v5.9h-0.7c-1-0.8-2.3-1.5-3.8-2.1c-1.5-0.6-3-0.8-4.6-0.8c-0.5,0-1.1,0-1.6,0.1s-1.1,0.2-1.6,0.4
		c-0.4,0.2-0.8,0.4-1.1,0.8c-0.3,0.3-0.5,0.7-0.5,1.2c0,0.7,0.3,1.2,0.8,1.5c0.5,0.4,1.5,0.7,2.9,1c0.9,0.2,1.8,0.4,2.7,0.6
		c0.9,0.2,1.8,0.4,2.8,0.8c1.9,0.6,3.4,1.5,4.3,2.6C36.2,391.9,36.6,393.3,36.6,395z"/>
	<path class="st1" d="M59.5,403H41.1v-25.4h18.4v4.9H47.7v4.4h11v4.9h-11v6.3h11.9V403z"/>
	<path class="st1" d="M89.5,403h-8l-6.9-9.3h-3v9.3H65v-25.4h11c1.5,0,2.8,0.1,3.9,0.3c1.1,0.2,2.1,0.5,3,1.1c1,0.6,1.7,1.3,2.3,2.2
		c0.6,0.9,0.8,2,0.8,3.4c0,1.9-0.4,3.4-1.3,4.6c-0.9,1.2-2.1,2.2-3.7,3L89.5,403z M79.3,385.4c0-0.6-0.1-1.2-0.4-1.6
		c-0.3-0.5-0.7-0.8-1.4-1.1c-0.4-0.2-1-0.3-1.6-0.3c-0.6,0-1.3-0.1-2.1-0.1h-2.4v6.9h2c1,0,1.9-0.1,2.6-0.2c0.7-0.1,1.3-0.3,1.8-0.7
		c0.5-0.4,0.8-0.7,1-1.2C79.2,386.7,79.3,386.1,79.3,385.4z"/>
	<path class="st1" d="M115.5,377.6l-9.3,25.4h-7.3l-9.3-25.4h6.9l6.2,17.9l6.2-17.9H115.5z"/>
	<path class="st1" d="M132.9,403H118v-4.5h4.2v-16.4H118v-4.5h14.9v4.5h-4.2v16.4h4.2V403z"/>
	<path class="st1" d="M149.7,403.5c-1.9,0-3.6-0.3-5.2-0.8c-1.6-0.6-3-1.4-4.1-2.5c-1.2-1.1-2-2.5-2.7-4.1c-0.6-1.7-0.9-3.6-0.9-5.7
		c0-2,0.3-3.8,0.9-5.5c0.6-1.6,1.5-3,2.6-4.2c1.1-1.1,2.5-2,4.1-2.6c1.6-0.6,3.4-0.9,5.4-0.9c1.1,0,2,0.1,2.9,0.2
		c0.9,0.1,1.7,0.3,2.4,0.5c0.8,0.2,1.5,0.5,2.1,0.7c0.6,0.3,1.2,0.5,1.6,0.7v6.2H158c-0.3-0.3-0.7-0.6-1.2-1c-0.5-0.4-1-0.7-1.6-1.1
		c-0.6-0.4-1.3-0.7-2-0.9c-0.7-0.2-1.5-0.4-2.3-0.4c-0.9,0-1.8,0.1-2.6,0.4c-0.8,0.3-1.6,0.8-2.3,1.4c-0.7,0.6-1.2,1.5-1.6,2.6
		c-0.4,1.1-0.6,2.4-0.6,3.9c0,1.6,0.2,2.9,0.7,4s1,1.9,1.7,2.5c0.7,0.6,1.5,1.1,2.3,1.3c0.9,0.3,1.7,0.4,2.5,0.4
		c0.8,0,1.6-0.1,2.4-0.4c0.8-0.2,1.5-0.6,2.2-1c0.6-0.3,1.1-0.7,1.6-1.1s0.9-0.7,1.2-1h0.7v6.1c-0.6,0.3-1.2,0.6-1.8,0.8
		c-0.6,0.3-1.2,0.5-1.8,0.6c-0.8,0.2-1.6,0.4-2.3,0.5C152,403.5,151,403.5,149.7,403.5z"/>
	<path class="st1" d="M182,403h-18.4v-25.4H182v4.9h-11.9v4.4h11v4.9h-11v6.3H182V403z"/>
	<path class="st1" d="M207.9,395c0,2.5-1.1,4.5-3.2,6.1c-2.1,1.6-5,2.4-8.7,2.4c-2.1,0-3.9-0.2-5.5-0.6c-1.6-0.4-3-0.8-4.4-1.4v-6.1
		h0.7c1.4,1.1,2.9,1.9,4.6,2.5s3.3,0.9,4.8,0.9c0.4,0,0.9,0,1.6-0.1c0.6-0.1,1.2-0.2,1.6-0.3c0.5-0.2,0.9-0.5,1.2-0.8
		c0.3-0.3,0.5-0.8,0.5-1.4c0-0.6-0.2-1-0.7-1.4s-1.2-0.7-2.1-0.9c-1-0.2-2-0.4-3-0.6c-1.1-0.2-2.1-0.5-3-0.8
		c-2.1-0.7-3.7-1.6-4.6-2.8c-0.9-1.2-1.4-2.7-1.4-4.4c0-2.4,1.1-4.3,3.2-5.8c2.1-1.5,4.9-2.2,8.2-2.2c1.7,0,3.3,0.2,5,0.5
		c1.6,0.3,3.1,0.7,4.2,1.2v5.9h-0.7c-1-0.8-2.3-1.5-3.8-2.1c-1.5-0.6-3-0.8-4.6-0.8c-0.5,0-1.1,0-1.6,0.1s-1.1,0.2-1.6,0.4
		c-0.4,0.2-0.8,0.4-1.1,0.8c-0.3,0.3-0.5,0.7-0.5,1.2c0,0.7,0.3,1.2,0.8,1.5c0.5,0.4,1.5,0.7,2.9,1c0.9,0.2,1.8,0.4,2.7,0.6
		c0.9,0.2,1.8,0.4,2.8,0.8c1.9,0.6,3.4,1.5,4.3,2.6C207.4,391.9,207.9,393.3,207.9,395z"/>
</g>
</svg>
