<?xml version="1.0" encoding="utf-8"?>
<!-- Generator: Adobe Illustrator 17.0.0, SVG Export Plug-In . SVG Version: 6.00 Build 0)  -->
<!DOCTYPE svg PUBLIC "-//W3C//DTD SVG 1.1//EN" "http://www.w3.org/Graphics/SVG/1.1/DTD/svg11.dtd">
<svg version="1.1" xmlns="http://www.w3.org/2000/svg" xmlns:xlink="http://www.w3.org/1999/xlink" x="0px" y="0px" width="500px"
	 height="500px" viewBox="0 0 500 500" enable-background="new 0 0 500 500" xml:space="preserve">
<g id="Fond" display="none">
	<rect display="inline" width="500" height="500"/>
</g>
<g id="Contour">
	<path d="M324.036,77.911l-15.156,37.917l45.733-7.384L340.75,140c20.138,22.078,33.821,47.453,35.044,80.847
		c2.342,63.932-51.862,115.837-115.837,115.837c-5.007,0-10.832,0.013-10.832,0.013l-19.759,30.73l-6.433-34.923
		c-49.047-13.473-78.813-58.33-78.813-111.657c0-43.926,20.975-82.413,57.008-102.051l3.476-44.441
		c-59.269,22.391-101.422,79.645-101.422,146.753c0,86.618,70.218,156.835,156.835,156.835s155.072-69.412,155.072-156.029
		C415.089,152.36,386.895,106.051,324.036,77.911z"/>
</g>
<g id="Foudre">
	<polygon fill="#FFD700" points="234.029,20 314.395,20 278.344,130.407 335.237,121.795 234.267,343.93 255.523,187.814 
		210.89,193.626 	"/>
</g>
<g id="Foudre-lueur">
	<image overflow="visible" width="146" height="326" xlink:href="2C7D9F9.png"  transform="matrix(1 0 0 1 218 -10)">
	</image>
</g>
<g id="SOSPRO">
	<g>
		<path d="M202.975,270.035h3.252c12.105,0,21.32,3.162,27.645,9.486c2.89,3.208,4.336,9.352,4.336,18.43v5.692h-27.916v-5.692
			c0-6.323-0.633-9.486-1.897-9.486c0-0.451-1.084-0.722-3.252-0.813c-2.71,0-4.247,2.168-4.607,6.505v3.252
			c0,4.699,2.077,8.041,6.234,10.028c10.343,5.783,17.481,10.119,21.411,13.009c5.149,3.298,8.673,7.634,10.57,13.009
			c1.264,4.428,1.897,8.764,1.897,13.009v5.149c0,9.486-2.439,15.811-7.318,18.972c-6.776,4.878-14.545,7.318-23.308,7.318h-4.878
			c-11.881,0-21.096-3.794-27.645-11.383c-2.891-4.291-4.336-10.975-4.336-20.056v-7.86h27.916v9.486
			c0,7.409,0.632,11.112,1.897,11.112c0,0.588,1.174,0.95,3.523,1.084h0.271c3.613,0,5.421-2.8,5.421-8.402
			c0-7.633-1.807-12.24-5.421-13.822c-3.523-2.529-11.293-7.408-23.308-14.635c-7.589-5.239-11.383-13.28-11.383-24.121
			c0-13.685,4.155-22.087,12.467-25.205C189.92,271.39,196.064,270.035,202.975,270.035z"/>
		<path d="M245.797,272.814h29.813v78.055c0,6.325,1.084,9.486,3.252,9.486h0.813c2.71,0,4.065-2.168,4.065-6.505
			c0.18-1.084,0.271-3.432,0.271-7.047v-73.99h29.813v71.28c0,9.442-0.723,15.584-2.168,18.43
			c-5.556,10.299-15.765,15.448-30.626,15.448h-0.271c-17.301-0.407-28.322-5.917-33.065-16.533
			c-1.265-2.348-1.897-8.763-1.897-19.243V272.814z"/>
		<path d="M320.465,272.543h29.542c0.361,0.046,0.542,0.227,0.542,0.542v102.989h-30.084V272.543z"/>
		<path d="M358.34,272.814h64.504c0.361,0.046,0.542,0.227,0.542,0.542v20.327h-17.617v82.392h-29.813
			c-0.362,0-0.542-0.18-0.542-0.542v-81.85h-17.617v-20.327C357.842,272.995,358.023,272.814,358.34,272.814z"/>
		<path d="M430.839,272.543h49.869v20.869h-19.785v19.514h18.43v19.785h-18.43v22.495h21.682v20.869h-51.766V272.543z"/>
	</g>
	<g>
		<path fill="#FFD700" d="M203.263,272.379h3.15c11.723,0,20.646,3.063,26.772,9.186c2.799,3.107,4.199,9.055,4.199,17.848v5.512
			H210.35v-5.512c0-6.124-0.613-9.186-1.837-9.186c0-0.436-1.05-0.699-3.15-0.787c-2.625,0-4.112,2.1-4.462,6.299v3.15
			c0,4.55,2.011,7.787,6.037,9.711c10.017,5.6,16.929,9.8,20.735,12.598c4.987,3.194,8.399,7.393,10.236,12.598
			c1.224,4.288,1.837,8.487,1.837,12.598v4.987c0,9.186-2.362,15.311-7.087,18.373c-6.562,4.724-14.086,7.087-22.572,7.087h-4.724
			c-11.506,0-20.43-3.675-26.772-11.024c-2.8-4.155-4.199-10.63-4.199-19.423v-7.612h27.034v9.186
			c0,7.175,0.612,10.761,1.837,10.761c0,0.569,1.137,0.919,3.412,1.05h0.262c3.499,0,5.249-2.712,5.249-8.136
			c0-7.392-1.75-11.854-5.249-13.386c-3.412-2.449-10.937-7.174-22.572-14.173c-7.349-5.074-11.024-12.861-11.024-23.359
			c0-13.255,4.024-21.391,12.073-24.409C190.621,273.691,196.571,272.379,203.263,272.379z"/>
		<path fill="#FFD700" d="M246.615,275.069h28.871v75.59c0,6.125,1.05,9.186,3.15,9.186h0.787c2.625,0,3.937-2.1,3.937-6.299
			c0.174-1.05,0.262-3.324,0.262-6.824v-71.653h28.871v69.029c0,9.144-0.7,15.092-2.1,17.848
			c-5.381,9.974-15.267,14.961-29.659,14.961h-0.262c-16.755-0.394-27.428-5.73-32.021-16.01c-1.225-2.274-1.837-8.486-1.837-18.635
			V275.069z"/>
		<path fill="#FFD700" d="M320.805,274.807h28.609c0.349,0.044,0.525,0.22,0.525,0.525v99.737h-29.134V274.807z"/>
		<path fill="#FFD700" d="M359.367,275.069h62.467c0.349,0.044,0.525,0.22,0.525,0.525v19.685h-17.06v79.79h-28.871
			c-0.351,0-0.525-0.174-0.525-0.525v-79.265h-17.06v-19.685C358.884,275.245,359.06,275.069,359.367,275.069z"/>
		<path fill="#FFD700" d="M431.458,274.807h48.294v20.21h-19.16v18.898h17.848v19.16h-17.848v21.785h20.997v20.21h-50.131V274.807z"
			/>
	</g>
	<g>
		<path d="M102.478,265.154v110.191H86.443v-89.447h-0.147l-59.582,89.447H7l75.765-110.191H102.478z"/>
		<path d="M145.554,284.225c10.421,1.621,14.033,7.114,17.369,12.428c1.653,2.633,2.348,6.685,2.348,9.058
			c0,8.781-3.426,19.539-13.234,32.433l-14.952,20.648h27.293v15.426H109.08v-13.053c22.15-31.999,33.226-50.195,33.226-54.585
			c0.316-0.632,0.475-1.502,0.475-2.611v-1.661c0-3.362-1.82-5.043-5.459-5.043h-0.475c-3.165,0.395-4.747,1.76-4.747,4.093
			c-0.317,1.266-0.475,4.668-0.475,10.205l-0.919,5.676h-21.384l-0.243-8.05c0-9.571,3.196-15.591,7.152-19.151
			C120.938,284.818,134.179,282.456,145.554,284.225z"/>
	</g>
	<g>
		<path fill="#FFD700" d="M100.917,269.526v104.511h-15.21v-84.836h-0.14l-56.511,84.836H10.359l71.86-104.511H100.917z"/>
		<path fill="#FFD700" d="M135.435,286.177c13.956,0,23.109,5.028,27.462,15.081c0.75,2.852,1.125,5.402,1.125,7.653
			c0,8.328-4.652,18.608-13.956,30.838l-14.181,19.583h25.886v14.631h-52.447v-12.38c21.008-30.35,31.513-47.608,31.513-51.772
			c0.3-0.599,0.45-1.425,0.45-2.476v-1.576c0-3.188-1.726-4.783-5.177-4.783h-0.45c-3.002,0.376-4.502,1.67-4.502,3.883
			c-0.301,1.201-0.45,4.427-0.45,9.679v2.701h-21.384v-4.952c0-9.078,1.875-15.306,5.627-18.683
			C119.415,288.653,126.242,286.177,135.435,286.177z"/>
	</g>
</g>
<g id="Calque_6">
	<g>
		<path d="M174.11,384.197v16.732h-1.32c-0.428-3.211-1.195-5.767-2.3-7.669c-1.107-1.904-2.682-3.412-4.727-4.531
			c-2.046-1.117-4.162-1.677-6.35-1.677c-2.474,0-4.519,0.757-6.136,2.266c-1.617,1.51-2.426,3.23-2.426,5.154
			c0,1.476,0.511,2.819,1.534,4.032c1.474,1.784,4.982,4.162,10.524,7.135c4.518,2.426,7.604,4.288,9.257,5.582
			c1.653,1.296,2.925,2.824,3.818,4.585c0.891,1.759,1.337,3.602,1.337,5.529c0,3.663-1.422,6.82-4.263,9.472
			c-2.843,2.652-6.5,3.978-10.97,3.978c-1.403,0-2.723-0.108-3.96-0.322c-0.738-0.12-2.265-0.553-4.584-1.302
			c-2.318-0.75-3.787-1.124-4.405-1.124c-0.595,0-1.065,0.179-1.409,0.534c-0.345,0.358-0.601,1.095-0.767,2.214h-1.32v-16.589h1.32
			c0.618,3.473,1.45,6.071,2.497,7.794c1.046,1.725,2.645,3.157,4.798,4.298s4.513,1.712,7.082,1.712
			c2.972,0,5.321-0.783,7.045-2.353c1.725-1.57,2.587-3.425,2.587-5.565c0-1.19-0.327-2.391-0.981-3.604
			c-0.655-1.213-1.671-2.342-3.051-3.388c-0.928-0.713-3.46-2.231-7.598-4.549c-4.138-2.32-7.082-4.168-8.829-5.548
			c-1.749-1.378-3.075-2.901-3.978-4.566c-0.904-1.664-1.356-3.496-1.356-5.494c0-3.472,1.331-6.463,3.995-8.972
			c2.663-2.508,6.052-3.764,10.167-3.764c2.568,0,5.291,0.632,8.169,1.892c1.331,0.595,2.271,0.893,2.818,0.893
			c0.618,0,1.123-0.184,1.517-0.553c0.392-0.369,0.707-1.112,0.945-2.231H174.11z"/>
		<path d="M189.021,413.306c-0.024,4.852,1.153,8.657,3.532,11.415c2.378,2.76,5.173,4.138,8.383,4.138
			c2.14,0,4.001-0.588,5.582-1.765c1.582-1.178,2.908-3.193,3.978-6.047l1.106,0.713c-0.499,3.259-1.951,6.225-4.352,8.901
			c-2.402,2.675-5.411,4.013-9.025,4.013c-3.924,0-7.283-1.528-10.077-4.584c-2.796-3.056-4.192-7.164-4.192-12.326
			c0-5.588,1.432-9.947,4.298-13.074c2.866-3.127,6.463-4.691,10.792-4.691c3.662,0,6.671,1.208,9.025,3.621
			c2.354,2.414,3.532,5.642,3.532,9.684H189.021z M189.021,411.239h15.126c-0.119-2.093-0.369-3.567-0.749-4.423
			c-0.595-1.333-1.48-2.379-2.658-3.139c-1.176-0.762-2.408-1.142-3.692-1.142c-1.974,0-3.74,0.766-5.298,2.301
			C190.192,406.368,189.282,408.503,189.021,411.239z"/>
		<path d="M225.515,400.036v7.35c2.735-4.9,5.541-7.35,8.419-7.35c1.308,0,2.39,0.4,3.246,1.195
			c0.856,0.797,1.284,1.719,1.284,2.765c0,0.928-0.31,1.712-0.928,2.354c-0.619,0.642-1.356,0.962-2.212,0.962
			c-0.833,0-1.765-0.409-2.801-1.23c-1.034-0.82-1.801-1.23-2.301-1.23c-0.428,0-0.892,0.238-1.391,0.713
			c-1.07,0.976-2.176,2.581-3.318,4.817v15.66c0,1.808,0.225,3.176,0.678,4.102c0.309,0.644,0.856,1.178,1.641,1.606
			c0.785,0.428,1.914,0.642,3.389,0.642v1.284h-16.731v-1.284c1.664,0,2.901-0.261,3.71-0.785c0.594-0.379,1.01-0.987,1.249-1.818
			c0.118-0.405,0.178-1.557,0.178-3.461v-12.663c0-3.806-0.077-6.071-0.232-6.797c-0.155-0.724-0.44-1.253-0.856-1.587
			c-0.416-0.332-0.934-0.499-1.551-0.499c-0.738,0-1.57,0.179-2.497,0.534l-0.357-1.284l9.882-3.995H225.515z"/>
		<path d="M238.607,401h15.375v1.319h-0.999c-0.928,0-1.636,0.228-2.123,0.679c-0.487,0.452-0.731,1.058-0.731,1.82
			c0,0.832,0.25,1.818,0.749,2.96l7.598,18.051l7.634-18.728c0.546-1.333,0.82-2.342,0.82-3.033c0-0.332-0.096-0.607-0.285-0.82
			c-0.262-0.358-0.595-0.6-0.999-0.733c-0.405-0.131-1.225-0.197-2.461-0.197V401h10.666v1.319c-1.237,0.096-2.093,0.346-2.568,0.75
			c-0.833,0.713-1.582,1.904-2.247,3.567l-11.594,28.039h-1.463l-11.665-27.575c-0.524-1.284-1.023-2.207-1.498-2.765
			c-0.476-0.559-1.082-1.028-1.819-1.41c-0.405-0.214-1.202-0.416-2.39-0.607V401z"/>
		<path d="M288.085,400.036v26.256c0,2.046,0.15,3.407,0.445,4.086c0.299,0.677,0.738,1.183,1.323,1.516
			c0.581,0.334,1.646,0.499,3.191,0.499v1.284h-15.873v-1.284c1.591,0,2.662-0.155,3.209-0.463c0.546-0.31,0.981-0.821,1.302-1.535
			c0.324-0.713,0.484-2.081,0.484-4.103v-12.592c0-3.543-0.108-5.838-0.324-6.884c-0.164-0.762-0.428-1.291-0.783-1.589
			c-0.358-0.296-0.846-0.445-1.462-0.445c-0.668,0-1.476,0.179-2.426,0.534l-0.5-1.284l9.845-3.995H288.085z M285.124,382.949
			c0.999,0,1.852,0.352,2.55,1.053c0.703,0.701,1.055,1.552,1.055,2.551c0,0.999-0.352,1.855-1.055,2.568
			c-0.699,0.713-1.551,1.068-2.55,1.068c-0.999,0-1.855-0.355-2.568-1.068s-1.068-1.57-1.068-2.568c0-0.999,0.352-1.85,1.051-2.551
			C283.241,383.3,284.104,382.949,285.124,382.949z"/>
		<path d="M324.865,421.262c-0.881,4.305-2.605,7.617-5.174,9.935c-2.568,2.32-5.41,3.479-8.525,3.479
			c-3.71,0-6.945-1.557-9.703-4.674c-2.76-3.115-4.138-7.324-4.138-12.627c0-5.137,1.528-9.312,4.584-12.522
			s6.726-4.817,11.007-4.817c3.209,0,5.85,0.851,7.918,2.551c2.071,1.702,3.104,3.466,3.104,5.297c0,0.905-0.292,1.636-0.874,2.194
			c-0.583,0.56-1.397,0.839-2.443,0.839c-1.404,0-2.462-0.451-3.176-1.356c-0.405-0.499-0.672-1.45-0.802-2.854
			c-0.132-1.403-0.613-2.473-1.444-3.211c-0.834-0.713-1.987-1.07-3.461-1.07c-2.379,0-4.293,0.881-5.744,2.64
			c-1.925,2.332-2.889,5.41-2.889,9.239c0,3.901,0.957,7.344,2.871,10.328c1.914,2.986,4.5,4.477,7.759,4.477
			c2.33,0,4.423-0.797,6.279-2.391c1.307-1.093,2.581-3.078,3.816-5.957L324.865,421.262z"/>
		<path d="M335.032,413.306c-0.024,4.852,1.154,8.657,3.531,11.415c2.379,2.76,5.174,4.138,8.384,4.138
			c2.14,0,4.001-0.588,5.582-1.765c1.582-1.178,2.908-3.193,3.978-6.047l1.107,0.713c-0.501,3.259-1.951,6.225-4.354,8.901
			c-2.401,2.675-5.41,4.013-9.025,4.013c-3.924,0-7.284-1.528-10.077-4.584c-2.795-3.056-4.192-7.164-4.192-12.326
			c0-5.588,1.432-9.947,4.298-13.074s6.463-4.691,10.793-4.691c3.661,0,6.67,1.208,9.025,3.621c2.354,2.414,3.533,5.642,3.533,9.684
			H335.032z M335.032,411.239h15.126c-0.12-2.093-0.369-3.567-0.75-4.423c-0.593-1.333-1.479-2.379-2.657-3.139
			c-1.176-0.762-2.407-1.142-3.691-1.142c-1.975,0-3.741,0.766-5.299,2.301C336.204,406.368,335.293,408.503,335.032,411.239z"/>
		<path d="M383.084,400.036v11.13h-1.176c-0.905-3.494-2.064-5.873-3.479-7.135c-1.417-1.26-3.218-1.89-5.405-1.89
			c-1.665,0-3.009,0.44-4.032,1.319c-1.021,0.881-1.533,1.855-1.533,2.927c0,1.331,0.379,2.473,1.142,3.425
			c0.736,0.974,2.234,2.01,4.495,3.103l5.208,2.532c4.827,2.356,7.241,5.459,7.241,9.312c0,2.974-1.122,5.368-3.371,7.189
			c-2.247,1.818-4.763,2.729-7.544,2.729c-1.998,0-4.281-0.357-6.849-1.07c-0.787-0.237-1.427-0.357-1.928-0.357
			c-0.546,0-0.974,0.31-1.284,0.927h-1.176v-11.664h1.176c0.666,3.329,1.939,5.838,3.818,7.526c1.878,1.69,3.983,2.532,6.313,2.532
			c1.643,0,2.979-0.48,4.015-1.444c1.034-0.962,1.55-2.123,1.55-3.477c0-1.643-0.576-3.021-1.73-4.138
			c-1.154-1.119-3.454-2.534-6.901-4.246c-3.449-1.712-5.708-3.258-6.78-4.638c-1.068-1.356-1.604-3.068-1.604-5.137
			c0-2.687,0.921-4.935,2.765-6.743c1.843-1.806,4.227-2.711,7.152-2.711c1.284,0,2.842,0.275,4.672,0.821
			c1.215,0.357,2.022,0.536,2.426,0.536c0.381,0,0.679-0.084,0.893-0.251c0.214-0.165,0.465-0.536,0.75-1.107H383.084z"/>
	</g>
</g>
</svg>
