<?xml version="1.0" encoding="utf-8"?>
<!-- Generator: Adobe Illustrator 17.0.0, SVG Export Plug-In . SVG Version: 6.00 Build 0)  -->
<!DOCTYPE svg PUBLIC "-//W3C//DTD SVG 1.1//EN" "http://www.w3.org/Graphics/SVG/1.1/DTD/svg11.dtd">
<svg version="1.1" id="Calque_1" xmlns="http://www.w3.org/2000/svg" xmlns:xlink="http://www.w3.org/1999/xlink" x="0px" y="0px"
	 width="500px" height="500px" viewBox="0 0 500 500" enable-background="new 0 0 500 500" xml:space="preserve">
<g id="Fond" display="none">
	<rect display="inline" width="500" height="500"/>
</g>
<g id="Contour">
	<path d="M324.334,78.218l-16.894,42.266l50.979-8.231l-15.454,35.176c22.448,24.611,37.7,52.896,39.063,90.121
		c2.61,71.265-57.811,129.124-129.124,129.124c-5.581,0-12.074,0.015-12.074,0.015l-16.117-1.52l-13.08-3.154
		c-54.673-15.018-87.853-65.021-87.853-124.464c0-48.965,23.381-91.866,63.547-113.756l3.875-49.538
		c-66.067,24.96-113.056,88.78-113.056,163.586c0,96.553,78.272,174.825,174.825,174.825s172.86-77.373,172.86-173.926
		C425.83,161.206,394.403,109.586,324.334,78.218z"/>
</g>
<g id="Foudre">
	<polygon fill="#FFD700" points="223.88,15 318.448,15 276.026,144.919 328.853,135.96 250.518,305.258 260.324,196.215 
		216.911,207.299 	"/>
</g>
<g id="foudre_lueur">
	<polygon fill="#FFF6D2" points="303.825,22 309.797,22 267.375,151.663 320.202,142.986 267.106,259 260.806,259 309.981,150.458 
		260.028,158.501 	"/>
</g>
<g id="SOSPRO">
	<g>
		<path d="M64.555,333.804c-1.155,1.178-1.731,2.618-1.731,4.324c0,1.787,0.597,3.309,1.791,4.566
			c1.194,1.26,2.667,1.888,4.418,1.888h4.896c3.422,0.164,6.628,0.955,9.612,2.375c2.985,1.422,5.592,3.31,7.822,5.663
			c2.227,2.356,3.98,5.097,5.254,8.222c1.273,3.127,1.911,6.435,1.911,9.925c0,3.574-0.638,6.902-1.911,9.987
			c-1.274,3.087-3.026,5.806-5.254,8.161c-2.23,2.356-4.836,4.244-7.822,5.662c-2.985,1.422-6.19,2.214-9.612,2.375h-0.597h-0.597
			H43.359v-19.851h29.734c1.672-0.08,3.084-0.731,4.239-1.949c1.153-1.218,1.731-2.68,1.731-4.386c0-1.784-0.617-3.287-1.851-4.506
			c-1.235-1.218-2.727-1.827-4.478-1.827h-4.418v-0.121c-3.504-0.08-6.767-0.831-9.792-2.254c-3.026-1.42-5.653-3.307-7.881-5.663
			c-2.229-2.353-4-5.094-5.313-8.221c-1.314-3.125-1.971-6.475-1.971-10.048c0-2.111,0.257-4.181,0.776-6.211
			c0.517-2.028,1.213-3.938,2.09-5.724h-8.478l8.359-14.25h22.21h0.12h0.597h29.853v19.853H68.794
			C67.122,331.958,65.708,332.627,64.555,333.804z"/>
		<path d="M184.979,354.569c0,5.685-1.134,11.104-3.403,16.26s-5.314,9.682-9.135,13.579c-3.822,3.897-8.281,7.003-13.374,9.318
			c-5.096,2.314-10.429,3.471-16.001,3.471c-6.29,0-12.001-1.156-17.136-3.471c-5.135-2.314-9.534-5.421-13.195-9.318
			c-3.663-3.897-6.489-8.423-8.479-13.579s-2.985-10.575-2.985-16.26c0-5.682,0.995-11.122,2.985-16.32
			c1.989-5.195,4.816-9.743,8.479-13.641c3.66-3.897,8.06-7.002,13.195-9.316s10.846-3.471,17.136-3.471
			c5.571,0,10.905,1.156,16.001,3.471c5.094,2.314,9.553,5.419,13.374,9.316c3.821,3.898,6.866,8.446,9.135,13.641
			C183.845,343.447,184.979,348.886,184.979,354.569z M165.515,354.569c0-2.923-0.638-5.743-1.91-8.464
			c-1.275-2.72-2.967-5.156-5.075-7.308c-2.11-2.15-4.498-3.876-7.165-5.176c-2.668-1.297-5.433-1.949-8.299-1.949
			c-3.504,0-6.628,0.652-9.374,1.949c-2.746,1.301-5.074,3.027-6.985,5.176c-1.911,2.152-3.385,4.588-4.418,7.308
			c-1.036,2.72-1.553,5.541-1.553,8.464c0,2.843,0.517,5.645,1.553,8.404c1.033,2.761,2.507,5.197,4.418,7.307
			c1.91,2.113,4.239,3.817,6.985,5.116c2.747,1.299,5.87,1.949,9.374,1.949c2.866,0,5.631-0.649,8.299-1.949
			c2.667-1.298,5.055-3.003,7.165-5.116c2.108-2.111,3.8-4.546,5.075-7.307C164.877,360.213,165.515,357.412,165.515,354.569z"/>
		<path d="M212.026,333.804c-1.155,1.178-1.731,2.618-1.731,4.324c0,1.787,0.597,3.309,1.791,4.566
			c1.194,1.26,2.667,1.888,4.418,1.888h4.896c3.422,0.164,6.628,0.955,9.612,2.375c2.985,1.422,5.592,3.31,7.822,5.663
			c2.227,2.356,3.98,5.097,5.254,8.222c1.273,3.127,1.911,6.435,1.911,9.925c0,3.574-0.638,6.902-1.911,9.987
			c-1.274,3.087-3.026,5.806-5.254,8.161c-2.23,2.356-4.836,4.244-7.822,5.662c-2.985,1.422-6.19,2.214-9.612,2.375h-0.597h-0.597
			H190.83v-19.851h29.734c1.672-0.08,3.084-0.731,4.239-1.949c1.153-1.218,1.731-2.68,1.731-4.386c0-1.784-0.617-3.287-1.851-4.506
			c-1.235-1.218-2.727-1.827-4.478-1.827h-4.418v-0.121c-3.504-0.08-6.767-0.831-9.792-2.254c-3.026-1.42-5.653-3.307-7.881-5.663
			c-2.229-2.353-4-5.094-5.313-8.221c-1.314-3.125-1.971-6.475-1.971-10.048c0-2.111,0.257-4.181,0.776-6.211
			c0.517-2.028,1.213-3.938,2.09-5.724h-8.478l8.359-14.25h22.21h0.12h0.597h29.853v19.853h-30.092
			C214.593,331.958,213.179,332.627,212.026,333.804z"/>
		<path d="M290.658,312.063c6.208,0,11.88,1.016,17.015,3.044c5.133,2.031,9.532,4.914,13.195,8.648
			c3.66,3.735,6.488,8.221,8.478,13.458s2.985,11.022,2.985,17.355c0,5.685-0.995,11.104-2.985,16.26s-4.818,9.682-8.478,13.579
			c-3.662,3.897-8.061,7.003-13.195,9.318c-5.136,2.314-10.808,3.471-17.015,3.471c-2.072,0-4.002-0.162-5.793-0.487
			c-1.791-0.324-3.543-0.853-5.253-1.583c-1.714-0.731-3.464-1.623-5.255-2.68c-1.791-1.054-3.722-2.314-5.791-3.776v33.981h-19.703
			v-96.339h-10.986l8.359-14.25h2.627h11.344h8.359v5.846c2.069-1.461,4-2.576,5.791-3.349c1.791-0.771,3.541-1.34,5.255-1.704
			c1.71-0.366,3.461-0.588,5.253-0.671C286.656,312.105,288.586,312.063,290.658,312.063z M290.658,377.344
			c3.501,0,6.627-0.649,9.374-1.949c2.747-1.298,5.074-3.024,6.984-5.176c1.91-2.15,3.382-4.585,4.419-7.307
			c1.032-2.719,1.551-5.5,1.551-8.343c0-7.144-1.97-12.726-5.91-16.746c-3.94-4.019-9.413-6.028-16.418-6.028
			c-2.789,0-5.493,0.529-8.121,1.583c-2.627,1.057-4.977,2.557-7.046,4.506s-3.742,4.345-5.014,7.186
			c-1.275,2.843-1.91,6.01-1.91,9.5c0,2.843,0.635,5.624,1.91,8.343c1.273,2.722,2.945,5.157,5.014,7.307
			c2.069,2.152,4.419,3.878,7.046,5.176C285.164,376.695,287.869,377.344,290.658,377.344z"/>
		<path d="M383.677,311.942c4.219,0,8.299,0.711,12.239,2.131c3.941,1.422,7.303,3.553,10.091,6.395l-13.971,14.25
			c-1.433-1.461-2.847-2.314-4.239-2.558c-1.394-0.243-2.768-0.364-4.12-0.364c-2.788,0-5.374,0.507-7.762,1.522
			c-2.388,1.016-4.439,2.417-6.149,4.202c-1.712,1.787-3.065,3.897-4.06,6.333c-0.996,2.436-1.492,5.075-1.492,7.917v45.428h-19.583
			v-71.005h-11.105l8.359-14.25h2.747h11.225h8.359v5.724c1.353-0.731,2.866-1.441,4.538-2.132c1.672-0.688,3.383-1.297,5.135-1.826
			c1.75-0.528,3.462-0.954,5.135-1.279C380.692,312.105,382.244,311.942,383.677,311.942z"/>
		<path d="M475.622,354.569c0,5.685-1.134,11.104-3.403,16.26s-5.313,9.682-9.135,13.579c-3.821,3.897-8.279,7.003-13.373,9.318
			c-5.096,2.314-10.431,3.471-16.002,3.471c-6.29,0-12-1.156-17.135-3.471c-5.135-2.314-9.535-5.421-13.196-9.318
			c-3.662-3.897-6.489-8.423-8.478-13.579c-1.991-5.156-2.985-10.575-2.985-16.26c0-5.682,0.994-11.122,2.985-16.32
			c1.989-5.195,4.816-9.743,8.478-13.641c3.661-3.897,8.061-7.002,13.196-9.316s10.845-3.471,17.135-3.471
			c5.571,0,10.906,1.156,16.002,3.471c5.094,2.314,9.552,5.419,13.373,9.316c3.822,3.898,6.866,8.446,9.135,13.641
			C474.488,343.447,475.622,348.886,475.622,354.569z M456.158,354.569c0-2.923-0.638-5.743-1.91-8.464
			c-1.274-2.72-2.966-5.156-5.075-7.308c-2.11-2.15-4.498-3.876-7.164-5.176c-2.668-1.297-5.434-1.949-8.299-1.949
			c-3.503,0-6.627,0.652-9.374,1.949c-2.747,1.301-5.075,3.027-6.986,5.176c-1.91,2.152-3.384,4.588-4.418,7.308
			c-1.036,2.72-1.553,5.541-1.553,8.464c0,2.843,0.517,5.645,1.553,8.404c1.033,2.761,2.507,5.197,4.418,7.307
			c1.91,2.113,4.239,3.817,6.986,5.116c2.747,1.299,5.87,1.949,9.374,1.949c2.866,0,5.631-0.649,8.299-1.949
			c2.666-1.298,5.054-3.003,7.164-5.116c2.109-2.111,3.801-4.546,5.075-7.307C455.52,360.213,456.158,357.412,456.158,354.569z"/>
	</g>
	<g>
		<path fill="#FFD700" d="M67.683,331.894c-1.139,1.139-1.708,2.532-1.708,4.182c0,1.728,0.589,3.201,1.767,4.418
			c1.179,1.218,2.63,1.826,4.359,1.826h4.83c3.376,0.159,6.538,0.924,9.483,2.297c2.945,1.376,5.517,3.201,7.717,5.478
			c2.198,2.278,3.926,4.929,5.183,7.952c1.255,3.024,1.885,6.225,1.885,9.601c0,3.456-0.63,6.676-1.885,9.66
			c-1.257,2.986-2.985,5.616-5.183,7.893c-2.2,2.278-4.771,4.104-7.717,5.478c-2.945,1.374-6.107,2.14-9.483,2.297h-0.589h-0.589
			h-28.98v-19.202h29.333c1.649-0.078,3.042-0.708,4.182-1.886c1.137-1.178,1.708-2.591,1.708-4.24c0-1.727-0.61-3.181-1.826-4.359
			c-1.219-1.178-2.691-1.767-4.417-1.767h-4.359v-0.118c-3.457-0.078-6.676-0.804-9.66-2.18c-2.985-1.373-5.577-3.199-7.775-5.478
			c-2.2-2.277-3.946-4.927-5.243-7.952c-1.295-3.022-1.944-6.261-1.944-9.719c0-2.041,0.254-4.044,0.766-6.007
			c0.51-1.963,1.197-3.809,2.061-5.537h-8.364l8.246-13.784h21.911h0.118h0.589h29.451v19.202H71.865
			C70.216,330.108,68.821,330.756,67.683,331.894z"/>
		<path fill="#FFD700" d="M186.486,351.978c0,5.498-1.119,10.74-3.357,15.727c-2.238,4.988-5.242,9.366-9.011,13.135
			c-3.77,3.77-8.169,6.774-13.194,9.012c-5.027,2.238-10.289,3.357-15.786,3.357c-6.205,0-11.839-1.119-16.905-3.357
			c-5.065-2.238-9.405-5.242-13.017-9.012c-3.614-3.769-6.402-8.147-8.364-13.135c-1.964-4.987-2.945-10.229-2.945-15.727
			c0-5.496,0.981-10.759,2.945-15.786c1.962-5.024,4.75-9.423,8.364-13.194c3.611-3.77,7.952-6.774,13.017-9.012
			c5.066-2.238,10.7-3.357,16.905-3.357c5.496,0,10.759,1.119,15.786,3.357c5.025,2.238,9.424,5.242,13.194,9.012
			c3.769,3.77,6.773,8.169,9.011,13.194C185.366,341.22,186.486,346.483,186.486,351.978z M167.284,351.978
			c0-2.827-0.629-5.555-1.884-8.187c-1.257-2.631-2.927-4.987-5.007-7.069c-2.082-2.079-4.438-3.749-7.068-5.007
			c-2.632-1.254-5.36-1.884-8.187-1.884c-3.457,0-6.538,0.63-9.247,1.884c-2.71,1.258-5.007,2.927-6.892,5.007
			c-1.884,2.082-3.339,4.438-4.358,7.069c-1.022,2.632-1.532,5.359-1.532,8.187c0,2.75,0.51,5.459,1.532,8.129
			c1.02,2.67,2.474,5.027,4.358,7.068c1.885,2.043,4.182,3.693,6.892,4.948c2.709,1.257,5.79,1.884,9.247,1.884
			c2.827,0,5.555-0.628,8.187-1.884c2.63-1.255,4.986-2.905,7.068-4.948c2.08-2.041,3.749-4.398,5.007-7.068
			C166.655,357.438,167.284,354.728,167.284,351.978z"/>
		<path fill="#FFD700" d="M213.168,331.894c-1.139,1.139-1.708,2.532-1.708,4.182c0,1.728,0.589,3.201,1.767,4.418
			c1.179,1.218,2.63,1.826,4.359,1.826h4.83c3.376,0.159,6.538,0.924,9.483,2.297c2.945,1.376,5.517,3.201,7.717,5.478
			c2.198,2.278,3.926,4.929,5.183,7.952c1.255,3.024,1.885,6.225,1.885,9.601c0,3.456-0.63,6.676-1.885,9.66
			c-1.257,2.986-2.985,5.616-5.183,7.893c-2.2,2.278-4.771,4.104-7.717,5.478c-2.945,1.374-6.107,2.14-9.483,2.297h-0.589h-0.589
			h-28.98v-19.202h29.333c1.649-0.078,3.042-0.708,4.182-1.886c1.137-1.178,1.708-2.591,1.708-4.24c0-1.727-0.61-3.181-1.826-4.359
			c-1.219-1.178-2.691-1.767-4.417-1.767h-4.359v-0.118c-3.457-0.078-6.676-0.804-9.66-2.18c-2.985-1.373-5.577-3.199-7.775-5.478
			c-2.2-2.277-3.946-4.927-5.243-7.952c-1.295-3.022-1.944-6.261-1.944-9.719c0-2.041,0.254-4.044,0.766-6.007
			c0.51-1.963,1.197-3.809,2.061-5.537h-8.364l8.246-13.784h21.911h0.118h0.589h29.451v19.202H217.35
			C215.701,330.108,214.306,330.756,213.168,331.894z"/>
		<path fill="#FFD700" d="M290.74,310.866c6.126,0,11.721,0.983,16.786,2.945c5.066,1.963,9.405,4.753,13.017,8.364
			c3.611,3.613,6.401,7.952,8.364,13.017c1.962,5.066,2.945,10.66,2.945,16.786c0,5.498-0.983,10.74-2.945,15.727
			c-1.963,4.988-4.753,9.366-8.364,13.135c-3.613,3.77-7.952,6.774-13.017,9.012s-10.66,3.357-16.786,3.357
			c-2.043,0-3.946-0.156-5.713-0.471c-1.767-0.313-3.496-0.824-5.183-1.532c-1.691-0.707-3.416-1.569-5.184-2.591
			c-1.767-1.02-3.671-2.238-5.713-3.653v32.867H249.51v-93.181h-10.838l8.246-13.783h2.592h11.19h8.246v5.655
			c2.042-1.414,3.946-2.492,5.713-3.24c1.768-0.745,3.494-1.295,5.184-1.649c1.687-0.354,3.416-0.569,5.183-0.648
			C286.793,310.906,288.697,310.866,290.74,310.866z M290.74,374.008c3.455,0,6.537-0.628,9.247-1.884
			c2.71-1.255,5.007-2.925,6.891-5.007c1.886-2.079,3.337-4.437,4.359-7.069c1.019-2.63,1.532-5.319,1.532-8.069
			c0-6.91-1.944-12.311-5.832-16.197c-3.886-3.888-9.287-5.832-16.197-5.832c-2.75,0-5.419,0.513-8.01,1.532
			c-2.592,1.022-4.909,2.473-6.951,4.359c-2.043,1.884-3.691,4.202-4.947,6.95c-1.258,2.75-1.886,5.813-1.886,9.188
			c0,2.75,0.628,5.439,1.886,8.069c1.255,2.632,2.904,4.989,4.947,7.069c2.042,2.082,4.359,3.751,6.951,5.007
			C285.32,373.38,287.99,374.008,290.74,374.008z"/>
		<path fill="#FFD700" d="M382.508,310.747c4.161,0,8.187,0.689,12.074,2.062c3.888,1.375,7.205,3.436,9.955,6.185l-13.783,13.783
			c-1.414-1.413-2.81-2.238-4.183-2.473c-1.374-0.235-2.73-0.354-4.064-0.354c-2.75,0-5.301,0.491-7.658,1.473
			c-2.356,0.983-4.378,2.337-6.066,4.064c-1.691,1.728-3.025,3.77-4.005,6.126c-0.983,2.356-1.473,4.909-1.473,7.657v43.941h-19.32
			v-68.679H333.03l8.246-13.784h2.71h11.073h8.247v5.537c1.334-0.707,2.827-1.393,4.477-2.061c1.649-0.666,3.337-1.255,5.066-1.768
			c1.727-0.509,3.416-0.922,5.066-1.237C379.563,310.906,381.094,310.747,382.508,310.747z"/>
		<path fill="#FFD700" d="M473.216,351.978c0,5.498-1.119,10.74-3.357,15.727c-2.238,4.988-5.243,9.366-9.012,13.135
			c-3.77,3.77-8.169,6.774-13.195,9.012c-5.027,2.238-10.289,3.357-15.784,3.357c-6.206,0-11.839-1.119-16.905-3.357
			s-9.406-5.242-13.017-9.012c-3.614-3.769-6.402-8.147-8.364-13.135c-1.964-4.987-2.945-10.229-2.945-15.727
			c0-5.496,0.98-10.759,2.945-15.786c1.962-5.024,4.75-9.423,8.364-13.194c3.611-3.77,7.952-6.774,13.017-9.012
			c5.066-2.238,10.699-3.357,16.905-3.357c5.496,0,10.758,1.119,15.784,3.357s9.425,5.242,13.195,9.012
			c3.769,3.77,6.774,8.169,9.012,13.194C472.097,341.22,473.216,346.483,473.216,351.978z M454.014,351.978
			c0-2.827-0.63-5.555-1.886-8.187c-1.257-2.631-2.926-4.987-5.006-7.069c-2.082-2.079-4.438-3.749-7.069-5.007
			c-2.632-1.254-5.359-1.884-8.187-1.884c-3.458,0-6.539,0.63-9.248,1.884c-2.71,1.258-5.007,2.927-6.891,5.007
			c-1.884,2.082-3.339,4.438-4.359,7.069c-1.022,2.632-1.531,5.359-1.531,8.187c0,2.75,0.509,5.459,1.531,8.129
			c1.02,2.67,2.475,5.027,4.359,7.068c1.884,2.043,4.182,3.693,6.891,4.948c2.71,1.257,5.791,1.884,9.248,1.884
			c2.827,0,5.555-0.628,8.187-1.884c2.631-1.255,4.987-2.905,7.069-4.948c2.08-2.041,3.749-4.398,5.006-7.068
			C453.384,357.438,454.014,354.728,454.014,351.978z"/>
	</g>
</g>
<g id="Depannages">
	<g>
		<path d="M121.157,427.7c-0.428,0.195-0.884,0.369-1.369,0.524c-0.486,0.156-0.884,0.233-1.194,0.233
			c-0.932,0-1.544-0.281-1.835-0.844s-0.01-1.525,0.845-2.884c1.282-1.203,2.699-2.087,4.252-2.651
			c1.553-0.561,3.165-0.932,4.835-1.105c1.669-0.176,3.379-0.205,5.126-0.088c1.748,0.117,3.437,0.233,5.068,0.35
			c2.019,0.506,3.835,1.223,5.447,2.155c1.611,0.932,3,2.02,4.165,3.262c1.165,1.243,2.087,2.621,2.767,4.136
			c0.679,1.515,1.078,3.107,1.194,4.777c0,1.942-0.379,3.971-1.136,6.087c-0.757,2.118-1.806,4.194-3.146,6.234
			c-1.34,2.037-2.893,3.981-4.66,5.825c-1.767,1.844-3.67,3.457-5.709,4.834c-2.039,1.38-4.136,2.476-6.291,3.292
			c-2.155,0.816-4.282,1.223-6.379,1.223c0-3.455-0.097-6.816-0.291-10.078c-0.195-3.262-0.428-6.484-0.699-9.67
			c-0.195-2.718-0.389-5.368-0.583-7.952C121.37,432.778,121.234,430.224,121.157,427.7z M130.71,424.845
			c-1.515,0-3.01,0.215-4.485,0.641c0.155,5.903,0.31,10.787,0.466,14.65c0.155,3.866,0.3,7.03,0.437,9.497
			c0.136,2.466,0.262,4.359,0.379,5.679c0.117,1.321,0.213,2.35,0.291,3.087l0.058,0.058c1.32-0.271,2.699-0.864,4.136-1.777
			c1.436-0.911,2.825-2.027,4.165-3.349c1.34-1.32,2.611-2.766,3.816-4.341c1.203-1.571,2.252-3.154,3.146-4.747
			c0.893-1.591,1.592-3.146,2.097-4.66c0.504-1.515,0.757-2.873,0.757-4.078c0-1.708-0.457-3.222-1.369-4.544
			c-0.913-1.32-2.107-2.437-3.583-3.349s-3.126-1.603-4.951-2.069C134.244,425.078,132.458,424.845,130.71,424.845z
			 M127.856,458.515c0-0.038-0.01-0.058-0.029-0.058c-0.02,0-0.029-0.018-0.029-0.058c0-0.038,0.019,0.02,0.058,0.175
			C127.894,458.73,127.894,458.71,127.856,458.515z"/>
		<path d="M152.089,454.438c0-1.398,0.184-3.164,0.553-5.301c0.369-2.135,0.903-4.397,1.602-6.787
			c0.699-2.387,1.544-4.765,2.534-7.135c0.99-2.368,2.087-4.446,3.291-6.233c1.203-1.786,2.505-3.154,3.903-4.108
			c1.398-0.951,2.874-1.232,4.427-0.844c0.31,0.04,0.689,0.215,1.136,0.524c0.446,0.311,0.874,0.757,1.282,1.34
			s0.747,1.31,1.019,2.185c0.271,0.872,0.408,1.912,0.408,3.116c0,1.282-0.214,2.778-0.641,4.485
			c-0.428,1.709-1.165,3.622-2.214,5.737c-1.049,2.118-2.466,4.457-4.252,7.02c-1.787,2.563-4.058,5.341-6.816,8.33
			c0.583,0.506,1.203,0.757,1.864,0.757c1.087,0,2.262-0.416,3.524-1.252c1.262-0.835,2.456-1.826,3.583-2.972
			c1.126-1.144,2.126-2.3,3-3.465s1.466-2.097,1.777-2.796c0.854,0.699,1.466,1.35,1.835,1.951c0.369,0.604,0.553,1.157,0.553,1.661
			c0,0.777-0.262,1.613-0.786,2.505c-0.524,0.894-1.214,1.797-2.068,2.708c-0.855,0.914-1.816,1.797-2.883,2.651
			c-1.068,0.855-2.155,1.603-3.262,2.242c-1.107,0.642-2.165,1.137-3.175,1.486c-1.01,0.349-1.884,0.504-2.621,0.466
			c-0.971,0-1.913-0.243-2.825-0.727c-0.913-0.486-1.718-1.117-2.417-1.894c-0.699-0.776-1.262-1.65-1.689-2.621
			C152.302,456.496,152.089,455.486,152.089,454.438z M166.885,430.962c0-0.737-0.136-1.184-0.408-1.34
			c-0.661,0.078-1.34,0.534-2.039,1.37c-0.699,0.835-1.379,1.892-2.039,3.174c-0.661,1.282-1.292,2.699-1.893,4.252
			c-0.602,1.554-1.136,3.097-1.602,4.63c-0.466,1.536-0.845,2.972-1.136,4.311c-0.291,1.341-0.457,2.438-0.495,3.292
			c0.854-0.659,1.835-1.814,2.942-3.465s2.155-3.467,3.146-5.447c0.99-1.981,1.825-3.951,2.505-5.913
			C166.545,433.866,166.885,432.243,166.885,430.962z M165.021,421.933c-0.971,0.273-1.709,0.359-2.214,0.261
			c-0.505-0.095-0.894-0.28-1.165-0.553c-0.272-0.271-0.486-0.601-0.641-0.99c-0.156-0.388-0.389-0.737-0.699-1.049l4.835-6.466
			c0.466,0,0.874,0.01,1.223,0.03c0.35,0.02,0.67,0.107,0.961,0.261c0.291,0.156,0.583,0.378,0.874,0.671
			c0.291,0.29,0.592,0.727,0.903,1.31L165.021,421.933z M166.361,429.564c0,0.04,0.019,0.058,0.058,0.058L166.361,429.564z"/>
		<path d="M174.108,457.874c1.049,0.195,1.893,0.331,2.534,0.408c0.641,0.078,1.145,0.108,1.515,0.088
			c0.369-0.02,0.66-0.068,0.874-0.146c0.213-0.077,0.398-0.175,0.553-0.291l-2.505-29.709c-0.233-0.776-0.262-1.417-0.087-1.922
			c0.175-0.504,0.466-0.912,0.874-1.223c0.408-0.31,0.874-0.524,1.398-0.641c0.524-0.116,1-0.175,1.427-0.175
			c2.214,0,4.466,0.166,6.757,0.494c2.291,0.331,4.359,1.02,6.204,2.069c1.844,1.049,3.35,2.555,4.515,4.515
			c1.165,1.961,1.748,4.572,1.748,7.834c-0.039,2.447-0.486,4.855-1.34,7.223c-0.855,2.37-1.971,4.554-3.35,6.553
			c-1.379,2.002-2.942,3.749-4.689,5.243c-1.748,1.496-3.515,2.593-5.301,3.292c0.077,3.883,0.155,7.892,0.233,12.03
			c0.077,4.135,0.155,8.144,0.233,12.028c-1.088,0-1.961-0.233-2.621-0.699c-0.661-0.466-1.185-1.02-1.573-1.659
			c-0.389-0.642-0.651-1.303-0.786-1.981c-0.136-0.681-0.204-1.253-0.204-1.719c0-0.156-0.01-0.331-0.029-0.524
			c-0.02-0.195-0.029-0.408-0.029-0.641c-0.039-1.01-0.097-2.312-0.175-3.903c-0.078-1.593-0.156-3.185-0.233-4.777
			c-0.078-1.593-0.146-3.059-0.204-4.397c-0.058-1.341-0.087-2.283-0.087-2.826c-0.428,0.038-0.786,0.048-1.078,0.03
			c-0.291-0.021-0.632-0.166-1.019-0.438c-0.389-0.271-0.855-0.727-1.398-1.37C175.72,460.001,175.002,459.079,174.108,457.874z
			 M185.001,455.894c1.436-0.699,2.747-1.631,3.932-2.796c1.184-1.165,2.214-2.495,3.087-3.991c0.874-1.493,1.582-3.086,2.126-4.777
			c0.543-1.688,0.874-3.387,0.99-5.096c-0.039-1.708-0.408-3.212-1.107-4.514c-0.699-1.301-1.622-2.39-2.767-3.262
			c-1.146-0.875-2.476-1.525-3.99-1.952c-1.515-0.426-3.087-0.641-4.718-0.641L185.001,455.894z"/>
		<path d="M207.312,463.059c-2.097-0.078-3.602-1.02-4.515-2.825c-0.913-1.807-1.369-4.108-1.369-6.904
			c0-1.748,0.165-3.63,0.495-5.65c0.33-2.019,0.796-4.038,1.398-6.058c0.602-2.019,1.32-4,2.155-5.942
			c0.835-1.941,1.748-3.7,2.738-5.271c0.99-1.574,2.029-2.913,3.117-4.021c1.087-1.105,2.214-1.853,3.379-2.242
			c1.669,0,2.99,0.389,3.961,1.165c0.97,0.777,1.728,1.748,2.272,2.913c0.271-0.583,0.573-1.087,0.903-1.515
			c0.33-0.426,0.679-0.699,1.049-0.816c0.369-0.117,0.747-0.038,1.136,0.233c0.388,0.273,0.776,0.816,1.165,1.631
			c-0.466,3.884-0.806,7.215-1.019,9.991c-0.214,2.776-0.32,5.096-0.32,6.96c0,2.137,0.107,3.855,0.32,5.156
			c0.213,1.301,0.514,2.33,0.903,3.086c0.388,0.759,0.845,1.303,1.369,1.631c0.524,0.331,1.116,0.574,1.777,0.729l-0.058-0.058
			c0.583,0.116,1.116,0.088,1.602-0.088c0.485-0.173,0.941-0.416,1.369-0.727c0.427-0.31,0.816-0.679,1.165-1.107
			c0.35-0.426,0.679-0.854,0.99-1.282c0.233-0.31,0.563-0.708,0.99-1.195c0.427-0.484,1.009-1.095,1.748-1.834
			c0.35,1.165,0.388,2.417,0.117,3.758c-0.272,1.338-0.767,2.563-1.485,3.668c-0.719,1.108-1.631,2.01-2.738,2.709
			c-1.107,0.699-2.301,1.03-3.583,0.99c-1.437,0-2.68-0.281-3.728-0.844c-1.049-0.563-1.932-1.301-2.65-2.214
			c-0.719-0.912-1.301-1.952-1.748-3.117s-0.786-2.368-1.019-3.612c-0.583,1.398-1.243,2.846-1.981,4.339
			c-0.738,1.496-1.593,2.866-2.563,4.107c-0.971,1.243-2.059,2.263-3.262,3.059c-1.204,0.794-2.544,1.193-4.019,1.193h-0.061
			V463.059z M218.38,436.554c0-0.621-0.058-1.358-0.175-2.214c-0.117-0.854-0.311-1.669-0.583-2.447
			c-0.272-0.776-0.612-1.436-1.019-1.981c-0.408-0.543-0.923-0.834-1.544-0.874c-0.505,0.04-1.078,0.448-1.718,1.223
			c-0.641,0.777-1.301,1.806-1.981,3.087c-0.68,1.282-1.331,2.738-1.951,4.369c-0.622,1.631-1.185,3.32-1.689,5.068
			c-0.505,1.748-0.913,3.495-1.223,5.243c-0.311,1.748-0.466,3.34-0.466,4.777c0,1.36,0.165,2.505,0.495,3.437
			s0.883,1.515,1.66,1.748l-0.117-0.058c0.583,0.117,1.203-0.145,1.864-0.787c0.66-0.639,1.33-1.523,2.01-2.65
			c0.679-1.125,1.349-2.437,2.01-3.931c0.66-1.495,1.272-3.059,1.835-4.69s1.068-3.252,1.515-4.863
			C217.749,439.4,218.108,437.914,218.38,436.554z"/>
		<path d="M240.982,433.7c0.504-1.282,1.078-2.505,1.718-3.67c0.641-1.165,1.349-2.184,2.126-3.059
			c0.776-0.872,1.621-1.561,2.534-2.067c0.912-0.504,1.893-0.737,2.942-0.699c1.631,0,2.951,0.476,3.961,1.428
			c1.009,0.952,1.825,2.097,2.447,3.435c0.621,1.341,1.078,2.719,1.369,4.137s0.495,2.592,0.612,3.524v-0.058
			c0.117,0.622,0.194,1.681,0.233,3.175c0.038,1.495,0.097,3.194,0.175,5.096c0.038,1.515,0.077,3.059,0.116,4.63
			c0.038,1.574,0.107,3.04,0.204,4.399c0.097,1.36,0.223,2.545,0.379,3.553c0.155,1.01,0.349,1.709,0.583,2.097
			c0.038,0.35-0.233,0.729-0.816,1.135c-0.583,0.409-1.252,0.739-2.01,0.992c-0.757,0.251-1.466,0.358-2.126,0.32
			c-0.661-0.04-1.049-0.33-1.165-0.874l0.058,0.058c-0.544-2.174-0.855-4.65-0.932-7.426c-0.078-2.776-0.136-5.582-0.175-8.418
			c0-2.097-0.029-4.116-0.087-6.058c-0.058-1.941-0.175-3.66-0.35-5.156c-0.175-1.493-0.447-2.668-0.816-3.524
			c-0.369-0.854-0.903-1.242-1.602-1.165c-1.049,0.04-1.981,0.583-2.796,1.631c-0.816,1.049-1.534,2.398-2.155,4.049
			c-0.622,1.651-1.156,3.515-1.602,5.592c-0.447,2.077-0.825,4.164-1.136,6.261s-0.573,4.117-0.786,6.058
			c-0.214,1.942-0.379,3.593-0.495,4.951c0.077,1.748-0.175,2.971-0.757,3.67c-0.583,0.699-1.233,1.057-1.951,1.078
			c-0.719,0.018-1.389-0.186-2.01-0.612c-0.622-0.426-0.913-0.874-0.874-1.34v-28.66c0-0.583,0.097-1.165,0.291-1.748
			c0.194-0.583,0.504-1.097,0.932-1.543c0.427-0.446,0.97-0.806,1.631-1.078c0.66-0.271,1.436-0.408,2.33-0.408L240.982,433.7
			L240.982,433.7z"/>
		<path d="M268.535,433.7c0.505-1.282,1.079-2.505,1.718-3.67c0.642-1.165,1.35-2.184,2.125-3.059
			c0.776-0.872,1.623-1.561,2.535-2.067c0.912-0.504,1.892-0.737,2.941-0.699c1.631,0,2.952,0.476,3.961,1.428
			s1.824,2.097,2.447,3.435c0.622,1.341,1.08,2.719,1.37,4.137c0.293,1.418,0.494,2.592,0.611,3.524v-0.058
			c0.117,0.622,0.193,1.681,0.233,3.175c0.04,1.495,0.097,3.194,0.176,5.096c0.037,1.515,0.077,3.059,0.117,4.63
			c0.037,1.574,0.105,3.04,0.205,4.399c0.094,1.36,0.222,2.545,0.378,3.553c0.153,1.01,0.35,1.709,0.583,2.097
			c0.037,0.35-0.233,0.729-0.816,1.135c-0.583,0.409-1.253,0.739-2.009,0.992c-0.759,0.251-1.469,0.358-2.128,0.32
			c-0.659-0.04-1.049-0.33-1.165-0.874l0.06,0.058c-0.546-2.174-0.855-4.65-0.932-7.426c-0.08-2.776-0.136-5.582-0.176-8.418
			c0-2.097-0.028-4.116-0.085-6.058c-0.06-1.941-0.176-3.66-0.35-5.156c-0.176-1.493-0.449-2.668-0.816-3.524
			c-0.372-0.854-0.904-1.242-1.603-1.165c-1.049,0.04-1.981,0.583-2.796,1.631c-0.816,1.049-1.534,2.398-2.157,4.049
			c-0.622,1.651-1.157,3.515-1.6,5.592c-0.449,2.077-0.827,4.164-1.137,6.261c-0.313,2.097-0.574,4.117-0.787,6.058
			c-0.213,1.942-0.378,3.593-0.494,4.951c0.077,1.748-0.176,2.971-0.758,3.67c-0.583,0.699-1.233,1.057-1.951,1.078
			c-0.719,0.018-1.389-0.186-2.01-0.612c-0.622-0.426-0.913-0.874-0.874-1.34v-28.66c0-0.583,0.097-1.165,0.291-1.748
			c0.194-0.583,0.504-1.097,0.932-1.543c0.427-0.446,0.97-0.806,1.631-1.078c0.66-0.271,1.436-0.408,2.33-0.408L268.535,433.7
			L268.535,433.7z"/>
		<path d="M295.855,463.059c-2.097-0.078-3.603-1.02-4.514-2.825c-0.914-1.807-1.37-4.108-1.37-6.904c0-1.748,0.165-3.63,0.494-5.65
			c0.33-2.019,0.796-4.038,1.398-6.058c0.602-2.019,1.32-4,2.157-5.942c0.834-1.941,1.748-3.7,2.736-5.271
			c0.992-1.574,2.029-2.913,3.117-4.021c1.087-1.105,2.214-1.853,3.379-2.242c1.669,0,2.989,0.389,3.961,1.165
			c0.97,0.777,1.728,1.748,2.272,2.913c0.271-0.583,0.573-1.087,0.902-1.515c0.33-0.426,0.679-0.699,1.049-0.816
			c0.369-0.117,0.747-0.038,1.137,0.233c0.388,0.273,0.776,0.816,1.165,1.631c-0.466,3.884-0.807,7.215-1.02,9.991
			c-0.213,2.776-0.32,5.096-0.32,6.96c0,2.137,0.107,3.855,0.32,5.156s0.514,2.33,0.904,3.086c0.388,0.759,0.844,1.303,1.37,1.631
			c0.523,0.331,1.115,0.574,1.776,0.729l-0.058-0.058c0.583,0.116,1.115,0.088,1.601-0.088c0.486-0.173,0.942-0.416,1.37-0.727
			c0.426-0.31,0.816-0.679,1.165-1.107c0.35-0.426,0.679-0.854,0.99-1.282c0.233-0.31,0.563-0.708,0.99-1.195
			c0.426-0.484,1.009-1.095,1.748-1.834c0.349,1.165,0.388,2.417,0.116,3.758c-0.273,1.338-0.767,2.563-1.486,3.668
			c-0.719,1.108-1.631,2.01-2.736,2.709c-1.108,0.699-2.302,1.03-3.583,0.99c-1.438,0-2.68-0.281-3.728-0.844
			c-1.049-0.563-1.932-1.301-2.651-2.214c-0.719-0.912-1.301-1.952-1.748-3.117c-0.446-1.165-0.786-2.368-1.019-3.612
			c-0.583,1.398-1.243,2.846-1.981,4.339c-0.739,1.496-1.593,2.866-2.563,4.107c-0.972,1.243-2.059,2.263-3.262,3.059
			c-1.205,0.794-2.545,1.193-4.019,1.193h-0.059V463.059z M306.923,436.554c0-0.621-0.058-1.358-0.175-2.214
			c-0.116-0.854-0.311-1.669-0.583-2.447c-0.273-0.776-0.611-1.436-1.02-1.981c-0.406-0.543-0.922-0.834-1.543-0.874
			c-0.506,0.04-1.077,0.448-1.719,1.223c-0.639,0.777-1.301,1.806-1.981,3.087s-1.33,2.738-1.951,4.369
			c-0.622,1.631-1.185,3.32-1.689,5.068c-0.506,1.748-0.914,3.495-1.223,5.243c-0.311,1.748-0.466,3.34-0.466,4.777
			c0,1.36,0.165,2.505,0.496,3.437c0.328,0.932,0.882,1.515,1.659,1.748l-0.116-0.058c0.583,0.117,1.203-0.145,1.864-0.787
			c0.659-0.639,1.33-1.523,2.009-2.65c0.679-1.125,1.35-2.437,2.01-3.931c0.659-1.495,1.272-3.059,1.834-4.69
			c0.563-1.631,1.068-3.252,1.515-4.863C306.291,439.4,306.65,437.914,306.923,436.554z"/>
		<path d="M331.214,484.962c-0.506-0.35-0.855-0.749-1.049-1.193c-0.195-0.448-0.291-0.904-0.291-1.37
			c0-0.544,0.116-1.04,0.35-1.486c0.233-0.446,0.543-0.796,0.932-1.049c0.388-0.253,0.816-0.369,1.282-0.35
			c0.466,0.02,0.932,0.223,1.398,0.612c0.776,0.466,1.515,0.786,2.214,0.962c0.699,0.173,1.378,0.261,2.039,0.261
			c1.669,0,3.126-0.611,4.369-1.836c1.242-1.222,2.272-2.736,3.087-4.544c0.816-1.804,1.388-3.748,1.719-5.825
			c0.328-2.077,0.436-3.99,0.32-5.737l-1.806-22.485c-1.826,4.505-3.593,8.184-5.301,11.04c-1.709,2.853-3.312,5.096-4.807,6.727
			c-1.495,1.631-2.874,2.758-4.134,3.379c-1.263,0.621-2.36,0.932-3.292,0.932c-0.777,0-1.476-0.146-2.097-0.436
			c-0.622-0.293-1.147-0.632-1.573-1.02c-0.389-0.816-0.661-1.719-0.816-2.708c-0.156-0.992-0.233-2.049-0.233-3.175
			c0-1.864,0.193-3.941,0.583-6.233c0.388-2.29,0.932-4.602,1.631-6.932c0.699-2.33,1.543-4.592,2.535-6.787
			c0.989-2.192,2.086-4.144,3.291-5.854c1.203-1.708,2.495-3.077,3.873-4.106s2.826-1.544,4.341-1.544
			c0.737,0,1.456,0.108,2.155,0.32c0.699,0.215,1.417,0.594,2.155,1.137c0.271-0.583,0.621-0.98,1.049-1.193
			c0.426-0.213,0.912-0.321,1.456-0.321c0.543,0,1.087,0.166,1.631,0.494c0.543,0.331,1.029,0.827,1.456,1.486l3.262,36.699
			c0.038,0.233,0.058,0.514,0.058,0.844s0,0.651,0,0.962c0,1.087-0.078,2.388-0.233,3.903c-0.156,1.515-0.438,3.077-0.844,4.689
			c-0.409,1.611-0.962,3.205-1.661,4.777c-0.699,1.574-1.601,2.981-2.709,4.224c-1.105,1.242-2.427,2.243-3.961,2.999
			c-1.534,0.759-3.349,1.137-5.446,1.137c-0.972,0-2.01-0.098-3.116-0.291c-1.108-0.195-2.283-0.506-3.525-0.932L331.214,484.962z
			 M342.573,432.593c0-0.776-0.311-1.485-0.932-2.127c-0.622-0.639-1.321-0.999-2.097-1.077c-0.816,0.156-1.641,0.709-2.476,1.659
			c-0.835,0.953-1.659,2.157-2.475,3.612c-0.816,1.458-1.573,3.089-2.272,4.893c-0.699,1.807-1.321,3.633-1.864,5.476
			c-0.544,1.846-0.972,3.641-1.282,5.389c-0.311,1.748-0.466,3.302-0.466,4.66c0,0.661,0.018,1.205,0.058,1.631
			c0.038,0.428,0.135,0.797,0.291,1.107c0.659-0.038,1.456-0.533,2.388-1.486c0.932-0.951,1.892-2.164,2.884-3.64
			c0.989-1.475,1.981-3.126,2.969-4.951c0.992-1.824,1.874-3.67,2.651-5.534c0.776-1.864,1.407-3.64,1.892-5.331
			C342.33,435.186,342.573,433.758,342.573,432.593z"/>
		<path d="M354.573,454.438c0-1.398,0.183-3.164,0.553-5.301c0.369-2.135,0.904-4.397,1.603-6.787
			c0.699-2.387,1.543-4.765,2.535-7.135c0.989-2.368,2.086-4.446,3.291-6.233c1.203-1.786,2.505-3.154,3.903-4.108
			c1.398-0.951,2.873-1.232,4.427-0.844c0.31,0.04,0.689,0.215,1.135,0.524c0.446,0.311,0.875,0.757,1.282,1.34
			c0.409,0.583,0.747,1.31,1.02,2.185c0.271,0.872,0.408,1.912,0.408,3.116c0,1.282-0.215,2.778-0.641,4.485
			c-0.428,1.709-1.165,3.622-2.214,5.737c-1.049,2.118-2.466,4.457-4.252,7.02c-1.787,2.563-4.059,5.341-6.816,8.33
			c0.583,0.506,1.203,0.757,1.864,0.757c1.087,0,2.262-0.416,3.524-1.252c1.262-0.835,2.457-1.826,3.583-2.972
			c1.125-1.144,2.126-2.3,3.001-3.465c0.872-1.165,1.465-2.097,1.776-2.796c0.854,0.699,1.465,1.35,1.836,1.951
			c0.368,0.604,0.553,1.157,0.553,1.661c0,0.777-0.263,1.613-0.786,2.505c-0.526,0.894-1.215,1.797-2.069,2.708
			c-0.855,0.914-1.816,1.797-2.884,2.651c-1.068,0.855-2.154,1.603-3.262,2.242c-1.105,0.642-2.165,1.137-3.174,1.486
			c-1.01,0.349-1.884,0.504-2.621,0.466c-0.972,0-1.914-0.243-2.826-0.727c-0.912-0.486-1.718-1.117-2.417-1.894
			c-0.699-0.776-1.263-1.65-1.689-2.621C354.787,456.496,354.573,455.486,354.573,454.438z M369.37,430.962
			c0-0.737-0.136-1.184-0.408-1.34c-0.661,0.078-1.34,0.534-2.039,1.37c-0.699,0.835-1.38,1.892-2.039,3.174
			c-0.661,1.282-1.292,2.699-1.892,4.252c-0.604,1.554-1.137,3.097-1.603,4.63c-0.466,1.536-0.844,2.972-1.137,4.311
			c-0.29,1.341-0.456,2.438-0.494,3.292c0.854-0.659,1.836-1.814,2.941-3.465c1.108-1.651,2.157-3.467,3.146-5.447
			c0.992-1.981,1.826-3.951,2.506-5.913C369.029,433.866,369.37,432.243,369.37,430.962z M368.845,429.564
			c0,0.04,0.018,0.058,0.058,0.058L368.845,429.564z"/>
		<path d="M390.224,463.059c-1.36-0.117-2.661-0.291-3.903-0.524c-1.243-0.233-2.37-0.592-3.379-1.078
			c-1.01-0.484-1.856-1.105-2.533-1.864c-0.681-0.756-1.098-1.698-1.253-2.825c1.398,0,2.543,0.098,3.437,0.291
			c0.892,0.195,1.728,0.389,2.505,0.583c0.737,0.233,1.495,0.436,2.272,0.612c0.776,0.173,1.553,0.261,2.33,0.261
			c0.659,0,1.368-0.088,2.127-0.261c0.756-0.176,1.445-0.438,2.067-0.787c0.621-0.35,1.135-0.796,1.544-1.34
			c0.406-0.543,0.611-1.203,0.611-1.981c0-0.737-0.215-1.495-0.641-2.272c-0.428-0.776-0.972-1.573-1.631-2.388
			c-0.661-0.816-1.398-1.611-2.214-2.388c-0.816-0.776-1.631-1.533-2.447-2.272c-1.01-0.892-2.02-1.814-3.029-2.766
			c-1.01-0.952-1.914-1.942-2.709-2.972c-0.796-1.027-1.446-2.097-1.951-3.202c-0.506-1.108-0.757-2.262-0.757-3.467
			c0-1.203,0.34-2.31,1.02-3.32c0.678-1.009,1.533-1.873,2.563-2.593c1.027-0.717,2.134-1.282,3.319-1.688
			c1.185-0.409,2.302-0.612,3.35-0.612c0.854-0.077,1.728,0.04,2.621,0.35c0.892,0.311,1.669,0.786,2.33,1.428
			c0.659,0.639,1.155,1.446,1.485,2.417c0.33,0.972,0.34,2.079,0.03,3.32l0.058-0.058c-0.195,1.01-0.494,1.709-0.904,2.097
			c-0.406,0.389-0.844,0.583-1.31,0.583s-0.924-0.193-1.37-0.583c-0.446-0.388-0.884-0.854-1.31-1.398c0-0.388,0-0.786,0-1.195
			c0-0.406-0.028-0.776-0.088-1.105c-0.057-0.33-0.155-0.602-0.29-0.816c-0.138-0.213-0.341-0.321-0.612-0.321
			c-0.622,0-1.263,0.088-1.922,0.261c-0.661,0.176-1.273,0.438-1.836,0.787c-0.563,0.35-1.029,0.787-1.398,1.31
			c-0.369,0.526-0.553,1.118-0.553,1.777c-0.117,0.35-0.03,0.786,0.263,1.311c0.29,0.523,0.699,1.097,1.222,1.718
			c0.526,0.622,1.165,1.292,1.924,2.01c0.756,0.719,1.543,1.466,2.359,2.242c1.203,1.127,2.418,2.302,3.64,3.524
			c1.225,1.225,2.302,2.458,3.234,3.7c0.932,1.243,1.631,2.505,2.097,3.786c0.466,1.282,0.563,2.545,0.291,3.786v-0.116
			c-0.156,1.593-0.534,2.913-1.135,3.961c-0.604,1.049-1.37,1.874-2.302,2.475c-0.932,0.602-2.009,1.02-3.234,1.253
			c-1.222,0.233-2.533,0.35-3.931,0.35L390.224,463.059L390.224,463.059z"/>
	</g>
</g>
</svg>
